<svg xmlns="http://www.w3.org/2000/svg" viewBox="0 0 1000 1000">
    <style>
    .svg 
        {
            position: relative
        }
    @keyframes robot-eye-animation {
        0% {
    transform: scale(1, 1);
    }
    50% {
        transform: scale(1.05, 1.05);
    }
    100% {
        transform: scale(1, 1);
    }  
    }
    @keyframes robot-hand-animation {
        0% {
        transform: scale(1, 1);
        }
        50% {
            transform: scale(0.95, 0.95);
        }
        100% {
            transform: scale(1, 1);
        }    
    }

    #robot-eye {
        animation-name: robot-eye-animation;
        animation-duration: 3s;
        animation-timing-function: ease--in-out;
        animation-iteration-count: infinite;
    }
    #robot-hand {
        animation-name: robot-hand-animation;
        animation-duration: 3s;
        animation-timing-function: ease-in-out;
        animation-iteration-count: infinite;
    }

    </style>
  <g transform="translate(100, 100)" id="openadapt">
    <svg width="600px" height="600px" x="0px" y="300px" viewBox="2 0 16 16" fill="none" xmlns="http://www.w3.org/2000/svg">
    <path fill-rule="evenodd" clip-rule="evenodd" d="M8.48024 4H12.4802L12.9802 4.5V6.53H13.5002L14.0002 7.03V8L13.5002 8.5H12.9802V11.5L12.4802 12H9.36024L6.86024 14.76L6.00024 14.4V12H3.50024L3.00024 11.36V8.5H2.50024L2.00024 8V7.03L2.50024 6.53H3.00024V4.36L3.53024 4H7.53024V2.86C7.37351 2.7766 7.24181 2.65299 7.14867 2.50184C7.05552 2.3507 7.00429 2.17749 7.00024 2C7.00024 1.73478 7.1056 1.48043 7.29314 1.29289C7.48067 1.10536 7.73503 1 8.00024 1C8.26546 1 8.51981 1.10536 8.70735 1.29289C8.89489 1.48043 9.00024 1.73478 9.00024 2C8.99203 2.17133 8.93988 2.33767 8.84882 2.48302C8.75775 2.62838 8.63083 2.74786 8.48024 2.83V4ZM12.0002 8V7.03V5H4.00024V7.03V8V10.86L6.50024 11H7.00024V13.19L8.80024 11.15L9.15024 11H12.0002V8ZM9.88026 8.51C9.50581 8.88537 9.02948 9.14266 8.51026 9.25V9.24C8.07712 9.32287 7.6303 9.29878 7.20858 9.16982C6.78686 9.04086 6.40298 8.81094 6.09026 8.5L5.39026 9.21C5.73086 9.54934 6.13531 9.81784 6.58026 10C7.03031 10.1878 7.5126 10.2863 8.00026 10.29C8.96702 10.2841 9.89308 9.90004 10.5803 9.22L9.88026 8.51ZM6.49023 6.5H5.49023V7.5H6.49023V6.5ZM9.49023 6.5H10.4902V7.5H9.49023V6.5Z" fill="#000"/>
    </svg>
  </g>
  <g id="container">
    <g transform="translate(450, 0)" id="chat">
    <svg xmlns="http://www.w3.org/2000/svg" xmlns:xlink="http://www.w3.org/1999/xlink" version="1.1" x="0px" y="0px" width="600px" height="700px" viewBox="0 0 100 125" style="enable-background:new 0 0 100 100;" xml:space="preserve"><path d="M37.8,72.9c-5,0-9.4-3-11.3-7.5h-0.5c-7.3,0-12.7-5-12.7-11.7V18.9c0-6.5,5.3-11.7,11.7-11.7h55.2c6.5,0,11.7,5.3,11.7,11.7  v34.7c0,6.2-5,11.7-10.7,11.7h-32C47.2,69.9,42.8,72.9,37.8,72.9z M24.9,10.2c-4.8,0-8.7,3.9-8.7,8.7v34.7c0,5,4.2,8.7,9.7,8.7h1.5  c0.7,0,1.2,0.4,1.4,1c1.2,3.9,4.8,6.5,8.9,6.5s7.6-2.6,8.9-6.5c0.2-0.6,0.8-1,1.4-1h33.1c3.6,0,7.7-3.7,7.7-8.7V18.9  c0-4.8-3.9-8.7-8.7-8.7H24.9z"/><path d="M26.5,87.2c-3.6,0-6.5-2.9-6.5-6.5s2.9-6.5,6.5-6.5s6.5,2.9,6.5,6.5S30.1,87.2,26.5,87.2z M26.5,77.2  c-1.9,0-3.5,1.6-3.5,3.5s1.6,3.5,3.5,3.5s3.5-1.6,3.5-3.5S28.4,77.2,26.5,77.2z"/><path d="M13.5,93.2c-2.5,0-4.5-2-4.5-4.5s2-4.5,4.5-4.5s4.5,2,4.5,4.5S16,93.2,13.5,93.2z M13.5,87.2c-0.8,0-1.5,0.7-1.5,1.5  s0.7,1.5,1.5,1.5s1.5-0.7,1.5-1.5S14.3,87.2,13.5,87.2z"/></svg>
    </g>
    <g transform="translate(500, 5)" id="robot-eye">
        <svg xmlns="http://www.w3.org/2000/svg" xmlns:xlink="http://www.w3.org/1999/xlink" version="1.1" baseProfile="tiny" x="550px" y="5px" width="300px" height="200px" viewBox="0 0 100 50" xml:space="preserve"><g><circle cx="30" cy="35" r="4"/><path d="M70,21H30c-7.73,0-14,6.27-14,14s6.27,14,14,14h40c7.73,0,14-6.27,14-14S77.73,21,70,21z M30,45c-5.52,0-10-4.48-10-10   s4.48-10,10-10s10,4.48,10,10S35.52,45,30,45z M70,45c-5.52,0-10-4.48-10-10s4.48-10,10-10s10,4.48,10,10S75.52,45,70,45z"/><circle cx="70" cy="35" r="4"/><path d="M68,66H32c-4.96,0-9,4.04-9,9s4.04,9,9,9h36c4.96,0,9-4.04,9-9S72.96,66,68,66z M29,80.19c-1.52-0.88-2.61-2.4-2.91-4.19   H29V80.19z M29,74h-2.91c0.3-1.79,1.39-3.31,2.91-4.19V74z M37,81h-5c-0.34,0-0.67-0.04-1-0.09V76h6V81z M37,74h-6v-4.91   c0.33-0.05,0.66-0.09,1-0.09h5V74z M45,81h-6v-5h6V81z M45,74h-6v-5h6V74z M53,81h-6v-5h6V81z M53,74h-6v-5h6V74z M61,81h-6v-5h6   V81z M61,74h-6v-5h6V74z M69,80.91C68.67,80.96,68.34,81,68,81h-5v-5h6V80.91z M69,74h-6v-5h5c0.34,0,0.67,0.04,1,0.09V74z    M71,80.19V76h2.91C73.61,77.79,72.52,79.31,71,80.19z M71,74v-4.19c1.52,0.88,2.61,2.4,2.91,4.19H71z"/></g></svg>
    </g>
    <g transform="translate(400, 400)" id="robot-hand">
        <svg xmlns="http://www.w3.org/2000/svg" xmlns:xlink="http://www.w3.org/1999/xlink" version="1.1" x="750px" y="100px" width="200px" height="300px" viewBox="0 0 64 80" style="enable-background:new 0 0 64 64;" xml:space="preserve"><circle cx="11" cy="52" r="1"/><path d="M14.478,60h5.073l7.084-7.113l-4.711-5.41l-2.609,2.609C19.536,50.034,19.763,50,20,50c1.654,0,3,1.346,3,3s-1.346,3-3,3  c-0.445,0-0.864-0.104-1.244-0.278L14.478,60z"/><path d="M12.126,59.523l5.197-5.197C17.123,53.925,17,53.478,17,53c0-0.518,0.144-0.999,0.376-1.424l-0.497-0.596  c-0.331-0.397-0.305-0.982,0.061-1.348l3.667-3.667l-5.63-6.466l-1.678,1.812l3.538,5.125c0.274,0.397,0.225,0.934-0.116,1.275  l-3.015,3.015C13.889,51.114,14,51.543,14,52c0,1.654-1.346,3-3,3c-0.415,0-0.81-0.085-1.17-0.238l-3.123,3.124l-1.414-1.414  l3.07-3.071C8.139,52.981,8,52.509,8,52c0-1.654,1.346-3,3-3c0.466,0,0.903,0.116,1.297,0.307l2.42-2.42l-2.81-4.072l-7.941,8.577  V60h8.637L12.126,59.523z"/><circle cx="20" cy="53" r="1"/><path d="M57.93,25.892l-0.169,0.113l1.58,2.205l0.269-0.269c0.519-0.519,0.519-1.364,0-1.883  C59.164,25.612,58.457,25.542,57.93,25.892z"/><path d="M30.584,19H33c0.199,0,0.394,0.06,0.559,0.171l1.949,1.314l2.65-6.437l-4.169-1.859L30.584,19z"/><polygon points="34.884,10.399 38.92,12.199 40.326,8.785 36.552,7.064 "/><polygon points="54.14,28.419 56.032,31.52 57.908,29.644 56.096,27.115 "/><path d="M52.706,9.421c0.55-0.763,0.467-1.799-0.198-2.464c-0.383-0.383-0.895-0.581-1.434-0.556  c-0.542,0.025-1.03,0.268-1.377,0.684L49.309,7.55l3.069,2.325L52.706,9.421z"/><path d="M40.234,4.527c-0.484-0.291-1.05-0.364-1.592-0.206c-0.515,0.15-0.93,0.491-1.187,0.956l3.627,1.653  C41.412,6.026,41.067,5.027,40.234,4.527z"/><path d="M21.729,39.195c1.549,0,3.005,0.587,4.125,1.647l3.898-3.238C29.284,36.843,29,35.957,29,35  c0-1.114,0.379-2.134,0.998-2.966L31.821,21h-2.275l-4.847,8.482l-1.958,3.002l-4.519,7.43l0.215,0.262  C19.407,39.539,20.541,39.195,21.729,39.195z"/><path d="M20.083,15C18.934,15,18,15.935,18,17.083l0,1.031l4.126-1.392C21.952,15.74,21.104,15,20.083,15z"/><polygon points="17.998,24.191 22.439,21.94 22.264,18.787 17.999,20.226 "/><polygon points="17.996,36.438 21.049,31.418 22.814,28.714 22.559,24.122 17.998,26.434 "/><path d="M43.704,25.746l2.74,1.358c0.265,0.131,0.458,0.374,0.528,0.661l0.513,2.123l5.185-5.926l-3.367-3.443L43.704,25.746z"/><path d="M35.449,22.856c-0.016-0.01-0.032-0.021-0.048-0.031L33.733,21.7l-1.424,8.614C32.84,30.122,33.404,30,34,30  c0.481,0,0.938,0.09,1.378,0.217l3.182-6.544l-2.819-0.699C35.641,22.952,35.542,22.912,35.449,22.856z"/><circle cx="34" cy="35" r="3"/><path d="M40.122,45.103l4.868-2.705c0.244-0.135,0.467-0.304,0.665-0.501l4.231-4.231l-0.544-2.174l-11.679,2.886  C36.748,39.368,35.451,40,34,40c-1.076,0-2.067-0.349-2.884-0.93l-3.921,3.257c1.543,2.238,1.383,5.278-0.452,7.361L40.122,45.103z"/><path d="M25.296,48.305c1.331-1.573,1.278-3.926-0.205-5.409l-0.526-0.526c-0.757-0.757-1.764-1.174-2.835-1.174  c-0.718,0-1.401,0.203-2.005,0.555l2.1,2.567L25.296,48.305z"/><path d="M50.97,33.757l0.565,2.259l3.042-3.042l-2.102-3.446l-3.698,2.466l1.774,1.17C50.76,33.303,50.909,33.514,50.97,33.757z"/><path d="M41.304,26.75c-0.073-0.065-0.135-0.139-0.186-0.218l-0.99-1.51l-2.979,6.127c0.407,0.333,0.766,0.717,1.051,1.161  l5.856-4.157l-2.518-1.248C41.456,26.865,41.376,26.814,41.304,26.75z"/><path d="M47.872,33.795l-1.442-0.95c-0.071-0.045-0.137-0.1-0.196-0.163c0,0,0-0.001-0.001-0.002  c-0.012-0.012-0.023-0.025-0.034-0.038c0-0.001-0.002,0-0.001-0.002c-0.104-0.125-0.173-0.268-0.207-0.418l-0.616-2.551  l-6.451,4.579C38.962,34.496,39,34.743,39,35c0,0.347-0.036,0.686-0.104,1.013L47.872,33.795z"/><path d="M37.756,21.414l2.484,0.616c0.245,0.061,0.458,0.212,0.596,0.423l1.169,1.785l4.094-5.669l-3.748-2.669L37.756,21.414z"/><polygon points="53.991,22.453 57.004,19.01 54.018,16.118 50.765,19.155 "/><polygon points="48.027,9.088 43.636,14.358 47.271,16.946 51.206,11.497 "/><path d="M58.381,17.436c0.682-0.779,0.643-1.964-0.09-2.696c-0.757-0.756-1.961-0.777-2.744-0.047l-0.064,0.06l2.84,2.75  L58.381,17.436z"/></svg>
    </g>
  </g>
</svg>