<svg xmlns="http://www.w3.org/2000/svg" xmlns:xlink="http://www.w3.org/1999/xlink" version="1.1" x="0px" y="0px" width="66px" height="66px" viewBox="0 1 66 66" style="enable-background:new 0 0 68 68;" xml:space="preserve"><style type="text/css">
	.st0{fill:#010101;}
	.st1{fill:none;stroke:#010101;stroke-width:2;stroke-linecap:round;stroke-linejoin:round;stroke-miterlimit:10;}
</style><g><g><path class="st0" d="M23.9,23.6c-0.6,0-1,0.4-1,1l0,27.6c0,0.6,0.4,1,1,1l6.4,0c0.3,0,0.5-0.1,0.7-0.3s0.3-0.4,0.3-0.7l0-27.6    c0-0.3-0.1-0.5-0.3-0.7s-0.4-0.3-0.7-0.3H23.9z M29.3,51.2l-4.4,0l0-25.6h4.4L29.3,51.2z"/></g><g><path class="st0" d="M10.4,35.2c-0.6,0-1,0.4-1,1l0,16c0,0.6,0.4,1,1,1l6.4,0c0.3,0,0.5-0.1,0.7-0.3s0.3-0.4,0.3-0.7l0-16    c0-0.3-0.1-0.5-0.3-0.7s-0.4-0.3-0.7-0.3H10.4z M15.8,51.2l-4.4,0l0-14h4.4L15.8,51.2z"/></g><g><path class="st0" d="M66,56.1h-2.4c0.3-1.2,0.5-2.6,0.5-3.9c0-4.7-2.2-9.2-6.2-12.1l0-23.2c0-0.6-0.4-1-1-1l-6.4,0    c-0.6,0-1,0.4-1,1l0,20.5c0,0-0.1,0-0.1,0c-1.7,0-3.2,0.3-4.7,0.8V28c0-0.6-0.4-1-1-1l-6.4,0c-0.3,0-0.5,0.1-0.7,0.3    s-0.3,0.4-0.3,0.7l0,17.5c-1,2-1.6,4.3-1.6,6.7c0,1.3,0.2,2.6,0.5,3.9L3,56.1L3,2c0-0.6-0.4-1-1-1C1.5,1,1,1.5,1,2l0,55.1    c0,0.3,0.1,0.5,0.3,0.7C1.5,58,1.7,58.1,2,58.1l33.8,0c2.3,5.2,7.5,8.9,13.6,8.9c6.1,0,11.3-3.7,13.6-8.9H66c0.6,0,1-0.4,1-1    C67,56.6,66.6,56.1,66,56.1z M51.5,18l4.4,0l0,21c-1.4-0.7-2.9-1.1-4.4-1.4L51.5,18z M38.2,29l4.4,0v10c-1.7,0.9-3.2,2.1-4.4,3.5    L38.2,29z M49.4,65L49.4,65c-7.2,0-12.8-5.9-12.8-12.8c0-7,5.7-12.8,12.8-12.8c7.1,0,12.8,5.7,12.8,12.8    C62.2,59.3,56.4,65,49.4,65z"/></g><g><path class="st0" d="M12.5,27c2.5,0,4.5-2,4.5-4.5c0-0.9-0.3-1.7-0.7-2.4l7.5-7.4c1.9,1.2,4.4,0.8,5.8-1l5.6,2.8    c-0.1,0.3-0.1,0.7-0.1,1c0,2.5,2,4.5,4.5,4.5c2.5,0,4.5-2,4.5-4.5c0-0.7-0.2-1.3-0.4-1.8L50,8.9c0.8,0.6,1.8,1.1,2.9,1.1    c2.5,0,4.5-2,4.5-4.5c0-2.5-2-4.5-4.5-4.5s-4.5,2-4.5,4.5c0,0.7,0.2,1.3,0.4,1.8l-6.3,4.8c-2-1.6-4.7-1.3-6.3,0.6L30.5,10    c0.1-0.3,0.1-0.7,0.1-1c0-2.5-2-4.5-4.5-4.5s-4.5,2-4.5,4.5c0,0.9,0.3,1.7,0.7,2.4l-7.5,7.4c-0.7-0.4-1.5-0.7-2.4-0.7    C10.1,18,8,20,8,22.5C8,25,10.1,27,12.5,27z M52.8,3c1.4,0,2.5,1.1,2.5,2.5c0,1.4-1.1,2.5-2.5,2.5s-2.5-1.1-2.5-2.5    C50.4,4.1,51.5,3,52.8,3z M39.6,13.1c1.4,0,2.5,1.1,2.5,2.5c0,1.4-1.1,2.5-2.5,2.5c-1.4,0-2.5-1.1-2.5-2.5    C37.1,14.2,38.3,13.1,39.6,13.1z M26.2,6.5c1.4,0,2.5,1.1,2.5,2.5s-1.1,2.5-2.5,2.5c-1.4,0-2.5-1.1-2.5-2.5S24.8,6.5,26.2,6.5z     M12.5,20c1.4,0,2.5,1.1,2.5,2.5c0,1.4-1.1,2.5-2.5,2.5c-1.4,0-2.5-1.1-2.5-2.5C10,21.1,11.2,20,12.5,20z"/></g><g><path class="st0" d="M50.5,50.5L50.5,50.5l-0.1-4.7c1.3,0.2,2.5,0.7,3.6,1.5l1.6-2.3c-1.7-1.1-3.4-1.8-5.3-1.9v-1.3h-1.6V43    c-1.6,0.1-3,0.6-4,1.5c-1,0.9-1.5,2.1-1.5,3.6c0,1.5,0.4,2.6,1.3,3.3c0.9,0.7,2.3,1.3,4.2,1.8v4.9c-1.5-0.2-3-1-4.4-2.2l-1.8,2.2    c1.8,1.6,3.9,2.5,6.2,2.8v1.8h1.6v-1.8c1.7-0.1,3.1-0.6,4.2-1.5c1-0.9,1.6-2.1,1.6-3.6c0-1.5-0.5-2.6-1.4-3.4    C53.9,51.6,52.4,51,50.5,50.5z M48.8,50.1c-0.9-0.3-1.6-0.6-1.9-0.9c-0.3-0.3-0.5-0.8-0.5-1.3c0-0.6,0.2-1,0.6-1.4    c0.4-0.4,1-0.6,1.8-0.7V50.1z M52.3,57.4c-0.5,0.4-1.1,0.6-1.9,0.7v-4.5c1,0.3,1.7,0.6,2.1,1c0.4,0.3,0.6,0.8,0.6,1.4    C53.1,56.6,52.8,57.1,52.3,57.4z"/></g></g></svg>