<svg xmlns="http://www.w3.org/2000/svg" width="92px" height="108px" viewBox="17 12 92 86" x="0px" y="0px"><title>4</title><g data-name="1"><path d="M99.97576,100.79385v14.51557a1.79074,1.79074,0,0,1-1.79089,1.79089H28.31915a1.79075,1.79075,0,0,1-1.7909-1.79089v-6.50354H20.23712a1.79084,1.79084,0,0,1-1.7909-1.79114V12.69083a1.79084,1.79084,0,0,1,1.7909-1.79114H90.1029A1.7909,1.7909,0,0,1,91.894,12.69083v6.50354h6.29083a1.79074,1.79074,0,0,1,1.79089,1.79089V78.5687a1.791,1.791,0,1,1-3.582,0V22.7764H91.894V51.55807a1.791,1.791,0,1,1-3.582,0V14.48172H22.02825v90.74213H88.312v-4.21729a1.791,1.791,0,0,1,3.582,0v6.00818a1.7909,1.7909,0,0,1-1.79114,1.79114H30.11v4.7124H96.39373V100.79385a1.791,1.791,0,0,1,3.582,0ZM75.26843,26.17648a1.791,1.791,0,1,0,0-3.582H35.07183a1.791,1.791,0,1,0,0,3.582Zm5.05127,6.09766H30.02056a1.791,1.791,0,0,0,0,3.582H80.3197a1.791,1.791,0,0,0,0-3.582ZM82.11059,43.745a1.791,1.791,0,0,0-1.79089-1.79114H30.02056a1.791,1.791,0,0,0,0,3.582H80.3197A1.79079,1.79079,0,0,0,82.11059,43.745ZM65.30883,53.42471a1.79083,1.79083,0,0,0-1.79089-1.79089H30.02056a1.791,1.791,0,0,0,0,3.582H63.51794A1.79084,1.79084,0,0,0,65.30883,53.42471Zm-2.97748,9.68a1.79088,1.79088,0,0,0-1.79089-1.7912H30.02056a1.791,1.791,0,0,0,0,3.582h30.5199A1.79077,1.79077,0,0,0,62.33135,63.10471Zm-6.85894,9.67968a1.791,1.791,0,0,0-1.79114-1.79113H30.02056a1.791,1.791,0,0,0,0,3.582H53.68127A1.79084,1.79084,0,0,0,55.47241,72.78439Zm-25.45185,7.8888a1.791,1.791,0,0,0,0,3.582H45.86541a1.791,1.791,0,0,0,0-3.582Zm78.86469,15.91034a5.04026,5.04026,0,0,1-3.13342,2.40246,5.10364,5.10364,0,0,1-1.29157.16669,5.03916,5.03916,0,0,1-2.61786-.736l-19.301-11.66614a6.01762,6.01762,0,0,1-1.22278.13782,5.95132,5.95132,0,0,1-2.69452-.65644q-.84165,1.067-1.73077,2.03253a4.78426,4.78426,0,0,1,.21093,5.13471L74.22405,98.4559a4.88763,4.88763,0,0,1-6.65625,1.82739L52.8963,91.92715a4.88668,4.88668,0,0,1-1.82666-6.65625l2.879-5.05676a4.79568,4.79568,0,0,1,4.52521-2.4411A39.0716,39.0716,0,0,1,66.988,62.824a4.87325,4.87325,0,0,1-.21265-5.13447l2.88025-5.05682a4.88192,4.88192,0,0,1,6.65754-1.82434l14.67,8.35315A4.88821,4.88821,0,0,1,92.80975,65.819L89.931,70.87454a4.88634,4.88634,0,0,1-4.25232,2.4654c-.09149,0-.1831-.01221-.27471-.0174q-.377,1.25161-.86084,2.51312a5.95924,5.95924,0,0,1,2.45214,3.11359l19.874,10.64246a5.078,5.078,0,0,1,2.016,6.99182ZM70.37457,61.23532,85.04559,69.59a1.30115,1.30115,0,0,0,1.77264-.48835l2.8783-5.05407a1.30285,1.30285,0,0,0-.48633-1.77411l-14.67-8.3534a1.2983,1.2983,0,0,0-1.7721.48554l-2.87958,5.0553A1.30375,1.30375,0,0,0,70.37457,61.23532ZM74.1148,90.6398a1.28514,1.28514,0,0,0-.60925-.78369L58.834,81.50015a1.29091,1.29091,0,0,0-.64154-.17065,1.32352,1.32352,0,0,0-.34491.046,1.29574,1.29574,0,0,0-.7865.61157l-2.87823,5.05524a1.302,1.302,0,0,0,.48632,1.77295l14.67005,8.35461a1.30093,1.30093,0,0,0,1.77209-.48682l2.88031-5.05676A1.28744,1.28744,0,0,0,74.1148,90.6398ZM80.12713,77.055A33.77429,33.77429,0,0,0,82.074,72.02L71.51635,66.00693l-1.71606-.97718a36.21318,36.21318,0,0,0-7.99494,14.04108l7.06971,4.02594,5.204,2.96338a33.8131,33.8131,0,0,0,3.37182-4.2951c.123-.1839.25141-.36207.37134-.54865.36182-.56281.71259-1.13776,1.04724-1.72552q.49933-.87672.9447-1.77167C79.92407,77.4996,80.02191,77.27634,80.12713,77.055Zm3.61365,3.83936a2.42335,2.42335,0,0,0-.01312-.24738c-.00379-.03509-.00629-.072-.01117-.10467a2.42207,2.42207,0,0,0-.64447-1.3244c-.34436.69256-.70874,1.37683-1.09009,2.04559-.38141.67029-.78351,1.33356-1.20264,1.98132a2.43385,2.43385,0,0,0,1.46588-.12268c.05219-.02142.10108-.04785.15119-.07251.06964-.03424.13995-.067.2063-.108.04126-.02551.07837-.0564.11785-.08423a2.37552,2.37552,0,0,0,.2016-.15063c.03821-.03357.07093-.07306.10694-.109a2.378,2.378,0,0,0,.16882-.17529,2.47286,2.47286,0,0,0,.23157-.33631,2.40287,2.40287,0,0,0,.18292-.41394c.02094-.06128.03546-.12347.05121-.18555.01831-.07208.03613-.14386.047-.213.01165-.07336.01873-.14679.02356-.22033C83.73748,80.99936,83.741,80.94547,83.74078,80.89438ZM105.91,93.65378a1.48388,1.48388,0,0,0-.73175-.90393L86.94921,82.9874c-.01086.02911-.02819.05572-.03955.08465a5.51584,5.51584,0,0,1-.879,1.53687c-.0116.01465-.02.03192-.03168.04644L103.695,95.3522a1.50223,1.50223,0,0,0,1.15363.168,1.49919,1.49919,0,0,0,1.0614-1.86639Z"/></g></svg>