<svg xmlns="http://www.w3.org/2000/svg" xmlns:xlink="http://www.w3.org/1999/xlink" version="1.1" x="0px" y="0px" width="60px" height="42px" viewBox="2 11 60 43" style="enable-background:new 0 0 64 64;" xml:space="preserve"><path d="M61,43h-3V13c0-1.103-0.897-2-2-2H8c-1.103,0-2,0.897-2,2v30H3c-0.552,0-1,0.448-1,1c0,4.962,4.038,9,9,9h42  c4.962,0,9-4.038,9-9C62,43.448,61.552,43,61,43z M8,13h48v30h-2V16c0-0.552-0.448-1-1-1H18v2h34v26H12V17h4v-2h-5  c-0.552,0-1,0.448-1,1v27H8V13z M53,51H11c-3.521,0-6.442-2.612-6.929-6h55.857C59.442,48.388,56.521,51,53,51z"/><rect x="17" y="47" width="30" height="2"/><path d="M24.36,35.768l1.28-1.536L20.562,30l5.078-4.232l-1.28-1.536l-6,5C18.132,29.422,18,29.703,18,30s0.132,0.578,0.36,0.768  L24.36,35.768z"/><path d="M39.64,35.768l6-5C45.868,30.578,46,30.297,46,30s-0.132-0.578-0.36-0.768l-6-5l-1.28,1.536L43.438,30l-5.078,4.232  L39.64,35.768z"/><rect x="24.368" y="28.5" transform="matrix(0.524 -0.8517 0.8517 0.524 -9.8939 41.2962)" width="15.264" height="2"/></svg>