<svg xmlns="http://www.w3.org/2000/svg" xmlns:xlink="http://www.w3.org/1999/xlink" width="21px" height="24px" viewBox="0 0 21 24" version="1.1" x="0px" y="0px"><title>health_011-healthcare-online-computer-stethoscope</title><desc>Created with Sketch.</desc><g stroke="none" stroke-width="1" fill="none" fill-rule="evenodd"><g transform="translate(-24.000000, -120.000000)" fill="#000000"><g transform="translate(24.000000, 120.000000)"><g transform="translate(0.000000, 6.000000)"><path d="M13.3999996,16 L14,18 L7,18 L7.60000038,16 L13.3999996,16 Z"/><path d="M9.26097747,0 L0.998746091,0 C0.438614845,0 0,0.45106594 0,1.00748397 L0,13.992516 C0,14.5510798 0.447153856,15 0.998746091,15 L20.0012539,15 C20.5613852,15 21,14.5489341 21,13.992516 L21,1.00748397 C21,0.448920205 20.5528461,0 20.0012539,0 L19.7356945,0 C19.585572,0.364053774 19.374089,0.702652256 19.1079317,1 L20,1 L20,12 L1,12 L1,1 L9.88487093,1 C9.62009208,0.702360521 9.40992771,0.363782248 9.26097747,1.42663659e-14 Z"/><rect x="6.5" y="17" width="8" height="1" rx="0.5"/></g><g transform="translate(3.000000, 0.000000)"><path d="M8,4.6737906 C7.99998918,5.07627884 8.1617322,5.46187558 8.44887026,5.74391654 C9.98464922,7.25243333 11.0568325,8.00867168 11.4898642,7.99989163 C11.9344341,7.99087764 13.0071344,7.23253592 14.5440339,5.74278277 C14.8354842,5.46024971 15,5.07165055 15,4.66573132 L15,1.99978888 L13,1.99978888 L13,0.999788884 L15.5,0.999788884 C15.7761424,0.999788884 16,1.22364651 16,1.49978888 L16,4.66573132 C16,5.34225825 15.7258137,5.98990777 15.2400564,6.46080273 C13.5045912,8.14303039 12.3159331,8.98334799 11.5101358,8.99968614 C10.6903906,9.0163071 9.49490531,8.17310069 7.74812383,6.45732697 C7.26955799,5.98725632 6.99998197,5.34458481 7,4.67377716 L7,1.49978888 C7,1.22364651 7.22385763,0.999788884 7.5,0.999788884 L10,0.999788884 L10,1.99978888 L8,1.99978888 L8,4.6737906 Z" fill-rule="nonzero"/><path d="M9.5,0 C9.77614237,-5.07265313e-17 10,0.223857625 10,0.5 L10,2.5 C10,2.77614237 9.77614237,3 9.5,3 C9.22385763,3 9,2.77614237 9,2.5 L9,0.5 C9,0.223857625 9.22385763,5.07265313e-17 9.5,0 Z"/><path d="M13.5,0 C13.2238576,-5.07265313e-17 13,0.223857625 13,0.5 L13,2.5 C13,2.77614237 13.2238576,3 13.5,3 C13.7761424,3 14,2.77614237 14,2.5 L14,0.5 C14,0.223857625 13.7761424,5.07265313e-17 13.5,0 Z"/><path d="M2,13.5 L2,10.5 C2,9.67157288 2.67157288,9 3.5,9 C4.32842712,9 5,9.67157288 5,10.5 L5,12.5 C5,14.4329966 6.56700338,16 8.5,16 C10.4329966,16 12,14.4329966 12,12.5 L12,8.5 C12,8.22385763 11.7761424,8 11.5,8 C11.2238576,8 11,8.22385763 11,8.5 L11,12.5 C11,13.8807119 9.88071187,15 8.5,15 C7.11928813,15 6,13.8807119 6,12.5 L6,10.5 C6,9.11928813 4.88071187,8 3.5,8 C2.11928813,8 1,9.11928813 1,10.5 L1,13.5 C1,13.7761424 1.22385763,14 1.5,14 C1.77614237,14 2,13.7761424 2,13.5 Z" fill-rule="nonzero"/><path d="M1.5,16 C0.671572875,16 0,15.3284271 0,14.5 C0,13.6715729 0.671572875,13 1.5,13 C2.32842712,13 3,13.6715729 3,14.5 C3,15.3284271 2.32842712,16 1.5,16 Z" fill-rule="nonzero"/></g></g></g></g></svg>