<svg xmlns="http://www.w3.org/2000/svg" width="62px" height="60px" viewBox="0 2 62 60" x="0px" y="0px"><title>pharmacy, pills, vitamin, supplement, medical</title><g data-name="Vitamin Pills"><path d="M56,48H53.9744a10,10,0,1,0-11.9488,0H40a7,7,0,0,0,0,14H56a7,7,0,0,0,0-14ZM48,32a7.9518,7.9518,0,0,1,4.8979,1.6885l-11.21,11.2088A7.9865,7.9865,0,0,1,48,32ZM43.1021,46.3115l11.21-11.2088a7.9866,7.9866,0,0,1-11.21,11.2088ZM35,55a5.0059,5.0059,0,0,1,5-5h7V60H40A5.0059,5.0059,0,0,1,35,55Zm21,5H49V50h7a5,5,0,0,1,0,10ZM32.01,60H6a3.0033,3.0033,0,0,1-3-3V55H30a1,1,0,0,0,0-2H3V27H39v2.76a1,1,0,0,0,2,0V23a5.051,5.051,0,0,0-5.0273-5A2.9942,2.9942,0,0,1,33,15V14h4a1,1,0,0,0,1-1V3a1,1,0,0,0-1-1H5A1,1,0,0,0,4,3V13a1,1,0,0,0,1,1H9v1a3.0453,3.0453,0,0,1-3.0449,3A4.9949,4.9949,0,0,0,1,23V57a5.0059,5.0059,0,0,0,5,5H32.01a1,1,0,0,0,0-2ZM6,4H36v8H6ZM3.8721,20.8818A3.019,3.019,0,0,1,5.9727,20,5.051,5.051,0,0,0,11,15V14H31v1a4.9949,4.9949,0,0,0,4.9551,5A3.0453,3.0453,0,0,1,39,23v2H3V23A3.0113,3.0113,0,0,1,3.8721,20.8818ZM20,10V6a1,1,0,0,1,2,0v4a1,1,0,0,1-2,0Zm-4,0V6a1,1,0,0,1,2,0v4a1,1,0,0,1-2,0Zm-4,0V6a1,1,0,0,1,2,0v4a1,1,0,0,1-2,0Zm-2,0a1,1,0,0,1-2,0V6a1,1,0,0,1,2,0Zm14,0V6a1,1,0,0,1,2,0v4a1,1,0,0,1-2,0Zm4,0V6a1,1,0,0,1,2,0v4a1,1,0,0,1-2,0Zm4,0V6a1,1,0,0,1,2,0v4a1,1,0,0,1-2,0Zm4,20a1,1,0,0,0-1-1H20a1,1,0,0,0-1,1v4a1,1,0,0,0,1,1H35a1,1,0,0,0,1-1Zm-2,3H21V31H34Zm2,5a1,1,0,0,1-1,1H20a1,1,0,0,1,0-2H35A1,1,0,0,1,36,38Zm0,4a1,1,0,0,1-1,1H17a1,1,0,0,1,0-2H35A1,1,0,0,1,36,42Zm-1,5H6a1,1,0,0,1,0-2H35a1,1,0,0,1,0,2Zm-5,2a1,1,0,0,1,0,2H6a1,1,0,0,1,0-2ZM13,29H9a1,1,0,0,0-1,1v2H6a1,1,0,0,0-1,1v4a1,1,0,0,0,1,1H8v2a1,1,0,0,0,1,1h4a1,1,0,0,0,1-1V38h2a1,1,0,0,0,1-1V33a1,1,0,0,0-1-1H14V30A1,1,0,0,0,13,29Zm2,5v2H13a1,1,0,0,0-1,1v2H10V37a1,1,0,0,0-1-1H7V34H9a1,1,0,0,0,1-1V31h2v2a1,1,0,0,0,1,1Z"/></g></svg>