<svg xmlns="http://www.w3.org/2000/svg" version="1.1" viewBox="-5.0 -10.0 110.0 135.0">
 <path d="m88.793 78.043h-0.74219v-33.797c0-0.61328-0.49609-1.1094-1.1094-1.1094h-9.5586c-0.61328 0-1.1094 0.49609-1.1094 1.1094v33.797h-4.4766v-23.43c0-0.61328-0.49609-1.1094-1.1094-1.1094h-9.4766c-0.61328 0-1.1094 0.49609-1.1094 1.1094v23.43h-4.4609v-27.777c0-0.61328-0.49609-1.1094-1.1094-1.1094h-9.4883c-0.61328 0-1.1094 0.49609-1.1094 1.1094v27.777h-4.5156v-20.98c0-0.61328-0.49609-1.1094-1.1094-1.1094h-9.4336c-0.61328 0-1.1094 0.49609-1.1094 1.1094v20.98h-4.6055v-13.32c0-0.61328-0.49609-1.1094-1.1094-1.1094h-9.3477c-0.61328 0-1.1094 0.49609-1.1094 1.1094v13.32h-0.39844c-0.61328 0-1.1094 0.49609-1.1094 1.1094 0 0.61328 0.49609 1.1094 1.1094 1.1094h77.582c0.61328 0 1.1094-0.49609 1.1094-1.1094 0-0.61328-0.49609-1.1094-1.1094-1.1094zm-26.465-22.324h7.2578v22.324h-7.2578zm-16.168-4.3477h7.2734v26.672h-7.2734zm-32.336 26.672v-12.211h7.1289v12.211zm16.168 0v-19.871h7.2188v19.871zm48.504 0v-32.688h7.3398v32.688zm-63.852-22.246 34.312-17.324c0.29688-0.14844 0.64062-0.16016 0.94531-0.027344l14.863 6.5195 15.438-11.855-1.5117 0.12891c-0.03125 0.003907-0.066406 0.003907-0.097656 0.003907-0.57031 0-1.0547-0.4375-1.1016-1.0117-0.050782-0.60938 0.39844-1.1484 1.0078-1.1992l5.2891-0.45703c0.007813 0 0.015626 0.003906 0.023438 0.003906 0.13281-0.007813 0.26562 0.003906 0.39453 0.046875 0.03125 0.011719 0.058594 0.027344 0.089844 0.042969 0.066406 0.027343 0.13672 0.050781 0.19922 0.089843 0.019531 0.015626 0.035156 0.035157 0.054687 0.050782 0.035157 0.027344 0.066407 0.058594 0.10156 0.089844 0.0625 0.0625 0.11719 0.12891 0.16406 0.20312 0.023438 0.039063 0.046875 0.074219 0.066406 0.11328 0.046876 0.10156 0.078126 0.20312 0.09375 0.3125 0.003907 0.019531 0.015626 0.035156 0.015626 0.054687v0.011719c0.007812 0.12109 0 0.24219-0.03125 0.36328l-1.2734 4.8945c-0.15625 0.59375-0.75781 0.94922-1.3516 0.79297s-0.94922-0.75781-0.79297-1.3516l0.46094-1.7695-16.402 12.598c-0.32031 0.24609-0.75 0.29688-1.1211 0.13672l-14.984-6.5742-33.852 17.09c-0.16016 0.082031-0.33203 0.12109-0.5 0.12109-0.40625 0-0.79688-0.22266-0.99219-0.60938-0.27734-0.54688-0.054688-1.2148 0.48828-1.4883zm5.2734-25.484c0-1.9727 1.6875-3.5703 4.0039-3.9609v-0.69531c0-0.61328 0.49609-1.1094 1.1094-1.1094s1.1094 0.49609 1.1094 1.1094v0.69922c1.2656 0.21875 2.3906 0.80859 3.125 1.6719 0.39844 0.46484 0.33984 1.1641-0.125 1.5625-0.46484 0.39844-1.1641 0.33984-1.5625-0.125-0.52344-0.61328-1.5-0.99219-2.5469-0.99219-1.543 0-2.8945 0.85938-2.8945 1.8398s1.3516 1.8398 2.8945 1.8398c2.8672 0 5.1094 1.7812 5.1094 4.0586 0 1.9727-1.6875 3.5703-4.0039 3.9609v0.69531c0 0.61328-0.49609 1.1094-1.1094 1.1094-0.61328 0-1.1094-0.49609-1.1094-1.1094v-0.69922c-1.0117-0.17578-1.9453-0.58984-2.6523-1.1953-0.46484-0.39844-0.51562-1.0977-0.11719-1.5625 0.39844-0.46484 1.0977-0.51562 1.5625-0.11719 0.5625 0.48438 1.4102 0.76172 2.3164 0.76172 1.543 0 2.8945-0.85938 2.8945-1.8398 0-0.98047-1.3516-1.8398-2.8945-1.8398-2.8672 0-5.1094-1.7812-5.1094-4.0586zm5.1094 16.469c7.4531 0 13.52-6.0664 13.52-13.52s-6.0664-13.52-13.52-13.52-13.52 6.0664-13.52 13.52 6.0664 13.52 13.52 13.52zm0-24.824c6.2344 0 11.305 5.0703 11.305 11.305s-5.0703 11.305-11.305 11.305c-6.2305 0-11.305-5.0703-11.305-11.305 0-6.2305 5.0703-11.305 11.305-11.305z"/>
<text x="0.0" y="117.5" font-size="5.0" font-weight="bold" font-family="Arbeit Regular, Helvetica, Arial-Unicode, Arial, Sans-serif" fill="#000000">Created by Arfan Haq</text><text x="0.0" y="122.5" font-size="5.0" font-weight="bold" font-family="Arbeit Regular, Helvetica, Arial-Unicode, Arial, Sans-serif" fill="#000000">from Noun Project</text></svg>
