<svg xmlns="http://www.w3.org/2000/svg" xmlns:xlink="http://www.w3.org/1999/xlink" version="1.1" x="0px" y="0px" widht="62px" height="62px" viewBox="0 0 62 62" style="enable-background:new 0 0 64 64;" xml:space="preserve"><g><path d="M16,11c-2.757,0-5,2.243-5,5s2.243,5,5,5s5-2.243,5-5S18.757,11,16,11z M16,19c-1.654,0-3-1.346-3-3s1.346-3,3-3   s3,1.346,3,3S17.654,19,16,19z"/><path d="M48,11c-2.757,0-5,2.243-5,5s2.243,5,5,5s5-2.243,5-5S50.757,11,48,11z M48,19c-1.654,0-3-1.346-3-3s1.346-3,3-3   s3,1.346,3,3S49.654,19,48,19z"/><path d="M63,19.784v-7.568l-2.794-0.687c-0.123-0.332-0.262-0.664-0.416-0.995l1.492-2.466l-5.351-5.351L53.465,4.21   c-0.33-0.154-0.662-0.293-0.994-0.416L51.784,1h-7.568l-0.687,2.794c-0.332,0.123-0.664,0.262-0.994,0.416l-2.467-1.492   l-5.351,5.351l1.492,2.466c-0.154,0.331-0.293,0.663-0.416,0.995L33,12.216v7.568l2.794,0.687c0.066,0.177,0.147,0.354,0.222,0.53   c-0.766,0.003-1.459,0.302-1.988,0.779c-0.532-0.48-1.229-0.78-2-0.78s-1.468,0.301-2,0.78c-0.532-0.48-1.229-0.78-2-0.78   c-0.015,0-0.03,0.003-0.045,0.004c0.075-0.178,0.158-0.355,0.224-0.533L31,19.784v-7.568l-2.794-0.687   c-0.123-0.332-0.262-0.664-0.416-0.995l1.492-2.466l-5.351-5.351L21.465,4.21c-0.33-0.154-0.662-0.293-0.994-0.416L19.784,1h-7.568   l-0.687,2.794c-0.332,0.123-0.664,0.262-0.994,0.416L8.068,2.718L2.718,8.069l1.492,2.466c-0.154,0.331-0.293,0.663-0.416,0.995   L1,12.216v7.568l2.794,0.687c0.123,0.333,0.262,0.665,0.416,0.995l-1.492,2.466l0.762,0.761C1.965,25.978,1,27.891,1,30.028   c0,3.86,3.141,7,7,7h13.027v0.487c0,1.87,0.729,3.627,2.051,4.95l0.949,0.95V49h-2v14h20V49h-2v-5.585l0.95-0.95   c1.322-1.322,2.05-3.08,2.05-4.95v-0.487h9.275l10.5-7l-4.571-3.047l3.05-3.05l-1.492-2.466c0.154-0.331,0.293-0.663,0.416-0.995   L63,19.784z M22.027,35.028h-5v-4.027l8,0.007v1.02C25.027,33.682,23.682,35.028,22.027,35.028z M9,16c0-3.86,3.141-7,7-7   s7,3.14,7,7s-3.141,7-7,7S9,19.86,9,16z M25.027,29.008l-8-0.007v-3.973h8V29.008z M15.027,25.028v10h-2v-10H15.027z M6.237,21.054   c-0.298-0.573-0.541-1.153-0.723-1.727l-0.17-0.534L3,18.216v-4.432l2.347-0.577l0.169-0.536c0.181-0.571,0.424-1.151,0.722-1.725   l0.259-0.499L5.241,8.375L8.375,5.24l2.072,1.255l0.498-0.258c0.572-0.297,1.153-0.54,1.728-0.722l0.534-0.17L13.784,3h4.432   l0.577,2.345l0.534,0.17c0.574,0.182,1.155,0.425,1.728,0.722l0.498,0.258l2.072-1.255l3.134,3.134l-1.255,2.073l0.259,0.499   c0.298,0.574,0.541,1.154,0.722,1.725l0.169,0.536L29,13.784v4.432l-2.347,0.577l-0.169,0.536   c-0.181,0.571-0.424,1.151-0.722,1.725l-0.245,0.471l0.269,0.495c-0.259,0.293-0.468,0.63-0.597,1.008h-3.582   C23.672,21.377,25,18.843,25,16c0-4.962-4.037-9-9-9s-9,4.038-9,9c0,2.843,1.328,5.377,3.393,7.028H8   c-0.97,0-1.894,0.199-2.734,0.557l1.23-2.032L6.237,21.054z M3,30.028c0-2.757,2.243-5,5-5h3.027v10H8   C5.243,35.028,3,32.785,3,30.028z M40.027,51v2h-16v-2H40.027z M24.027,61v-6h16v6H24.027z M41.027,37.515   c0,1.336-0.52,2.591-1.464,3.536l-1.536,1.535V49h-12v-6.414l-1.535-1.536c-0.931-0.931-1.465-2.22-1.465-3.536v-0.588   c2.279-0.465,4-2.484,4-4.899V24c0-0.551,0.448-1,1-1s1,0.449,1,1v6v6h2v-6v-6c0-0.551,0.448-1,1-1s1,0.449,1,1v6v6h2v-6v-6   c0-0.551,0.448-1,1-1s1,0.449,1,1v12h2V24c0-0.551,0.448-1,1-1s1,0.449,1,1V37.515z M43.027,25.028H51v3.999l-7.973-0.004V25.028z    M48,23c-3.859,0-7-3.14-7-7s3.141-7,7-7s7,3.14,7,7S51.859,23,48,23z M43.027,31.023L51,31.027v4.001h-7.973V31.023z M53,34.159   v-8.263l6.197,4.132L53,34.159z M58.759,23.625l-2.224,2.224l-3.547-2.364C55.405,21.87,57,19.118,57,16c0-4.962-4.037-9-9-9   s-9,4.038-9,9c0,1.872,0.576,3.612,1.558,5.054C40.385,21.023,40.209,21,40.027,21c-0.581,0-1.119,0.173-1.579,0.46l-0.211-0.406   c-0.298-0.574-0.541-1.154-0.722-1.725l-0.169-0.536L35,18.216v-4.432l2.347-0.577l0.169-0.536   c0.181-0.571,0.424-1.151,0.722-1.725l0.259-0.499l-1.255-2.073l3.134-3.134l2.072,1.255l0.498-0.258   c0.572-0.297,1.153-0.54,1.728-0.722l0.534-0.17L45.784,3h4.432l0.577,2.345l0.534,0.17c0.574,0.182,1.155,0.425,1.728,0.722   l0.498,0.258l2.072-1.255l3.134,3.134l-1.255,2.073l0.259,0.499c0.298,0.574,0.541,1.154,0.722,1.725l0.169,0.536L61,13.784v4.432   l-2.347,0.577l-0.169,0.536c-0.181,0.571-0.424,1.151-0.722,1.725l-0.259,0.499L58.759,23.625z"/><rect x="44" y="49" width="2" height="2"/><rect x="44" y="53" width="2" height="2"/><rect x="44" y="57" width="2" height="2"/><rect x="44" y="61" width="2" height="2"/><rect x="18" y="49" width="2" height="2"/><rect x="18" y="53" width="2" height="2"/><rect x="18" y="57" width="2" height="2"/><rect x="18" y="61" width="2" height="2"/></g></svg>