<svg xmlns="http://www.w3.org/2000/svg" xmlns:xlink="http://www.w3.org/1999/xlink" xmlns:serif="http://www.serif.com/" width="58px" height="59px" viewBox="3 3 58 58" version="1.1" xml:space="preserve" style="" x="0px" y="0px" fill-rule="evenodd" clip-rule="evenodd" stroke-linejoin="round" stroke-miterlimit="2"><g><path d="M8,26L28,26C28.796,26 29.559,26.316 30.121,26.879C30.684,27.441 31,28.204 31,29L31,44C31,44.796 30.684,45.559 30.121,46.121C29.559,46.684 28.796,47 28,47L8,47C7.204,47 6.441,46.684 5.879,46.121C5.316,45.559 5,44.796 5,44L5,29C5,28.204 5.316,27.441 5.879,26.879C6.441,26.316 7.204,26 8,26ZM13.999,28L8,28C7.735,28 7.48,28.105 7.293,28.293C7.105,28.48 7,28.735 7,29L7,44C7,44.265 7.105,44.52 7.293,44.707C7.48,44.895 7.735,45 8,45L28,45C28.265,45 28.52,44.895 28.707,44.707C28.895,44.52 29,44.265 29,44L29,29C29,28.735 28.895,28.48 28.707,28.293C28.52,28.105 28.265,28 28,28L22,28L22,32.131C22,32.869 21.594,33.547 20.944,33.895C20.294,34.243 19.504,34.205 18.891,33.796L18,33.202L17.109,33.796C16.496,34.205 15.706,34.243 15.056,33.895C14.406,33.547 14,32.869 14,32.132L13.999,28ZM20,28L15.999,28L16,32.132L16.891,31.538C17.562,31.09 18.438,31.09 19.109,31.538L20,32.131L20,28ZM21,39C21,38.448 21.448,38 22,38C22.552,38 23,38.448 23,39L23,42C23,42.552 22.552,43 22,43C21.448,43 21,42.552 21,42L21,39ZM25,39C25,38.448 25.448,38 26,38C26.552,38 27,38.448 27,39L27,42C27,42.552 26.552,43 26,43C25.448,43 25,42.552 25,42L25,39ZM36,26L56,26C56.796,26 57.559,26.316 58.121,26.879C58.684,27.441 59,28.204 59,29L59,44C59,44.796 58.684,45.559 58.121,46.121C57.559,46.684 56.796,47 56,47L36,47C35.204,47 34.441,46.684 33.879,46.121C33.316,45.559 33,44.796 33,44L33,29C33,28.204 33.316,27.441 33.879,26.879C34.441,26.316 35.204,26 36,26ZM41.999,28L36,28C35.735,28 35.48,28.105 35.293,28.293C35.105,28.48 35,28.735 35,29L35,44C35,44.265 35.105,44.52 35.293,44.707C35.48,44.895 35.735,45 36,45L56,45C56.265,45 56.52,44.895 56.707,44.707C56.895,44.52 57,44.265 57,44L57,29C57,28.735 56.895,28.48 56.707,28.293C56.52,28.105 56.265,28 56,28L50,28L50,32.131C50,32.869 49.594,33.547 48.944,33.895C48.294,34.243 47.504,34.205 46.891,33.796L46,33.202L45.109,33.796C44.496,34.205 43.706,34.243 43.056,33.895C42.406,33.547 42,32.869 42,32.132L41.999,28ZM48,28L43.999,28L44,32.132L44.891,31.538C45.562,31.09 46.438,31.09 47.109,31.538L48,32.131L48,28ZM49,39C49,38.448 49.448,38 50,38C50.552,38 51,38.448 51,39L51,42C51,42.552 50.552,43 50,43C49.448,43 49,42.552 49,42L49,39ZM53,39C53,38.448 53.448,38 54,38C54.552,38 55,38.448 55,39L55,42C55,42.552 54.552,43 54,43C53.448,43 53,42.552 53,42L53,39ZM22,3L42,3C42.796,3 43.559,3.316 44.121,3.879C44.684,4.441 45,5.204 45,6L45,21C45,21.796 44.684,22.559 44.121,23.121C43.559,23.684 42.796,24 42,24L22,24C21.204,24 20.441,23.684 19.879,23.121C19.316,22.559 19,21.796 19,21L19,6C19,5.204 19.316,4.441 19.879,3.879C20.441,3.316 21.204,3 22,3ZM27.999,5L22,5C21.735,5 21.48,5.105 21.293,5.293C21.105,5.48 21,5.735 21,6L21,21C21,21.265 21.105,21.52 21.293,21.707C21.48,21.895 21.735,22 22,22L42,22C42.265,22 42.52,21.895 42.707,21.707C42.895,21.52 43,21.265 43,21L43,6C43,5.735 42.895,5.48 42.707,5.293C42.52,5.105 42.265,5 42,5L36,5L36,9.131C36,9.869 35.594,10.547 34.944,10.895C34.294,11.243 33.504,11.205 32.891,10.796L32,10.202L31.109,10.796C30.496,11.205 29.706,11.243 29.056,10.895C28.406,10.547 28,9.869 28,9.132L27.999,5ZM34,5L29.999,5L30,9.132L30.891,8.538C31.562,8.09 32.438,8.09 33.109,8.538L34,9.131L34,5ZM35,16C35,15.448 35.448,15 36,15C36.552,15 37,15.448 37,16L37,19C37,19.552 36.552,20 36,20C35.448,20 35,19.552 35,19L35,16ZM39,16C39,15.448 39.448,15 40,15C40.552,15 41,15.448 41,16L41,19C41,19.552 40.552,20 40,20C39.448,20 39,19.552 39,19L39,16ZM9,49L55,49C58.311,49 61,51.689 61,55C61,58.311 58.311,61 55,61L9,61C5.689,61 3,58.311 3,55C3,51.689 5.689,49 9,49ZM9,51C6.792,51 5,52.792 5,55C5,57.208 6.792,59 9,59L55,59C57.208,59 59,57.208 59,55C59,52.792 57.208,51 55,51L9,51ZM21,53C22.104,53 23,53.896 23,55C23,56.104 22.104,57 21,57C19.896,57 19,56.104 19,55C19,53.896 19.896,53 21,53ZM32,53C33.104,53 34,53.896 34,55C34,56.104 33.104,57 32,57C30.896,57 30,56.104 30,55C30,53.896 30.896,53 32,53ZM10,53C11.104,53 12,53.896 12,55C12,56.104 11.104,57 10,57C8.896,57 8,56.104 8,55C8,53.896 8.896,53 10,53ZM54,53C55.104,53 56,53.896 56,55C56,56.104 55.104,57 54,57C52.896,57 52,56.104 52,55C52,53.896 52.896,53 54,53ZM43,53C44.104,53 45,53.896 45,55C45,56.104 44.104,57 43,57C41.896,57 41,56.104 41,55C41,53.896 41.896,53 43,53Z"/></g></svg>