<svg xmlns="http://www.w3.org/2000/svg" xmlns:xlink="http://www.w3.org/1999/xlink" xml:space="preserve" version="1.1" style="shape-rendering:geometricPrecision;text-rendering:geometricPrecision;image-rendering:optimizeQuality;" width="831px" height="800px" viewBox="0 0 831 800" x="0px" y="0px" fill-rule="evenodd" clip-rule="evenodd"><defs><style type="text/css">
   
    .fil0 {fill:black;fill-rule:nonzero}
   
  </style></defs><g><path class="fil0" d="M536.79 718.77l0 -75.69c0,-73.33 -60.18,-97.27 -122.03,-108.59l-108.48 97.39c-7.85,7.06 -19.68,6.89 -27.31,-0.09l-108.38 -97.3c-61.85,11.32 -122.03,35.26 -122.03,108.59l0 75.69 488.23 0zm-0.41 -405.62c-26.81,0 -26.81,-40.74 0,-40.74l103.67 0c26.82,0 26.82,40.74 0,40.74l-103.67 0zm156.84 0c-26.81,0 -26.81,-40.74 0,-40.74l71.58 0c26.82,0 26.82,40.74 0,40.74l-71.58 0zm-156.84 -60.34c-26.81,0 -26.81,-40.73 0,-40.73l228.42 0c26.82,0 26.82,40.73 0,40.73l-228.42 0zm0 -60.34c-26.81,0 -26.81,-40.73 0,-40.73l40.9 0c26.82,0 26.82,40.73 0,40.73l-40.9 0zm94.07 0c-26.82,0 -26.82,-40.73 0,-40.73l134.35 0c26.82,0 26.82,40.73 0,40.73l-134.35 0zm-106.54 -105.31l253.36 0c33.9,0 61.57,27.65 61.57,61.56l0 173.03c0,33.9 -27.67,61.56 -61.57,61.56l-153.67 0 -126.05 92.32c-16.24,11.9 -38.31,-4.71 -30.9,-23.89l28.5 -75.66c-19.76,-10.5 -32.8,-31.24 -32.8,-54.33l0 -173.03c0,-33.91 27.66,-61.56 61.56,-61.56zm253.36 40.73l-253.36 0c-11.41,0 -20.83,9.42 -20.83,20.83l0 173.03c0,20.94 22.11,20.69 25.91,22.13 10.5,3.95 15.8,15.67 11.85,26.17l-12.22 32.45 75.3 -55.15c3.54,-2.98 8.11,-4.78 13.1,-4.78l160.25 0c11.41,0 20.83,-9.41 20.83,-20.82l0 -173.03c0,-11.41 -9.42,-20.83 -20.83,-20.83zm-493.24 270.9c68.49,-0.64 61.53,88.14 7.93,88.14 -21.38,0 -38.13,-5.44 -47.59,-24.87 -11.76,-1.09 -22.62,-2.67 -32.55,-4.65 78.66,85.24 188.95,16.57 201.51,-86.35 -58.54,-8.23 -90.22,-19.27 -142.79,-52.11 -40.42,32.71 -51.71,36.46 -98.82,49.58l8.42 36.44c19.44,9.44 44.06,14.18 65.49,16.38 7.82,-13.81 22.21,-22.56 38.4,-22.56zm3.61 40.21c-10.99,1.06 -9.33,9.3 1.44,8.68 10.62,-0.61 10.62,-9.85 -1.44,-8.68zm-113.95 -113.23c33.05,-9.57 43.39,-15.3 82.35,-47.54 7.37,-6.1 17.77,-6.12 25.11,-0.65 46.53,30.1 76.82,44.06 131.26,52.2 -11.95,-69.31 -70.92,-110.01 -129.29,-105.53 -55.47,4.25 -98.58,48.22 -109.43,101.52zm118.99 -142.57c91.52,0 162.47,78.25 162.47,170.15 0,124.47 -124.36,231.11 -237.31,161.34 -52.43,-32.38 -84.53,-91.99 -87.23,-153 -4.17,-93.97 65.69,-178.49 162.07,-178.49zm284.85 459.88l0 96.06c0,11.24 -9.13,20.36 -20.37,20.36l-528.97 0c-11.24,0 -20.36,-9.12 -20.36,-20.36l0 -96.06c0,-99.36 78.92,-136.08 164.56,-150.11 6.22,-1.4 13,0.14 18.1,4.72l102.19 91.74 102.18 -91.74 0.03 0.03c4.39,-3.95 10.47,-5.96 16.76,-4.96 84.15,13.46 165.88,49.35 165.88,150.32z"/></g></svg>