<svg xmlns="http://www.w3.org/2000/svg" xmlns:xlink="http://www.w3.org/1999/xlink" version="1.1" x="0px" y="0px" width="32px" height="31px" viewBox="5 4 32 31" style="enable-background:new 0 0 42 42;" xml:space="preserve"><path d="M37,21C37,12.3,29.9,5.2,21.3,5c-0.1,0-0.2,0-0.3,0c-0.1,0-0.2,0-0.3,0C12.1,5.2,5,12.3,5,21  c0,0.4,0.2,0.7,0.4,0.9C5.6,22,6,22,6.3,21.9c0.2-0.1,0.5-0.3,0.5-0.4c0,0,1.8-2.6,4.2-2.6c2.4,0,4.2,2.5,4.2,2.6  c0.1,0.1,0.3,0.3,0.5,0.4C15.8,22,16,22,16,22h0c0,0,0,0,0,0c0,0,0,0,0,0c0.1,0,0.2,0,0.3-0.1c0.2-0.1,0.4-0.2,0.5-0.4  c0,0,1.7-2.5,4.2-2.5c2.3,0,4.2,2.5,4.2,2.6c0.2,0.2,0.5,0.4,0.8,0.4h0c0,0,0,0,0,0c0,0,0,0,0,0c0.3,0,0.6-0.2,0.8-0.4  c0,0,1.8-2.6,4.2-2.6c2.4,0,4.1,2.5,4.2,2.6c0.2,0.3,0.5,0.4,0.8,0.4l0,0c0,0,0,0,0,0c0,0,0,0,0,0c0.2,0,0.4-0.1,0.6-0.3  C36.9,21.5,37,21.2,37,21z M11,17c-1.5,0-2.8,0.6-3.7,1.3c1.1-5.3,5.1-9.5,10.2-10.8c-1.5,2.6-2.2,6.8-2.4,11.1  C14.1,17.8,12.7,17,11,17z M21,17c-1.6,0-2.9,0.7-3.9,1.5c0.3-7,2.1-11.2,3.8-11.4c0.1,0,0.1,0,0.2,0c0.1,0,0.1,0,0.2,0  c1.7,0.2,3.4,4.4,3.8,11.5C23.9,17.7,22.6,17,21,17z M31,17c-1.7,0-3.1,0.8-4.1,1.6C26.7,14.2,26,10,24.5,7.5  c5.1,1.4,9.1,5.6,10.2,10.8C33.8,17.6,32.5,17,31,17z"/><path d="M21,20c-0.6,0-1,0.4-1,1v10c0,1.1-0.9,2-2,2s-2-0.9-2-2c0-0.6-0.4-1-1-1s-1,0.4-1,1c0,2.2,1.8,4,4,4  s4-1.8,4-4V21C22,20.4,21.6,20,21,20z"/><text x="0" y="57" fill="#000000" font-size="5px" font-weight="bold" font-family="'Helvetica Neue', Helvetica, Arial-Unicode, Arial, Sans-serif">Created by Josy Dom Alexis</text><text x="0" y="62" fill="#000000" font-size="5px" font-weight="bold" font-family="'Helvetica Neue', Helvetica, Arial-Unicode, Arial, Sans-serif">from the Noun Project</text></svg>