<svg xmlns:dc="http://purl.org/dc/elements/1.1/" xmlns:cc="http://creativecommons.org/ns#" xmlns:rdf="http://www.w3.org/1999/02/22-rdf-syntax-ns#" xmlns:svg="http://www.w3.org/2000/svg" xmlns="http://www.w3.org/2000/svg" xmlns:sodipodi="http://sodipodi.sourceforge.net/DTD/sodipodi-0.dtd" xmlns:inkscape="http://www.inkscape.org/namespaces/inkscape" width="17px" height="17px" viewBox="0 0 17 17" version="1.1" x="0px" y="0px"><g><path style="color:#000000;font-style:normal;font-variant:normal;font-weight:normal;font-stretch:normal;font-size:medium;line-height:normal;font-family:sans-serif;font-variant-ligatures:normal;font-variant-position:normal;font-variant-caps:normal;font-variant-numeric:normal;font-variant-alternates:normal;font-feature-settings:normal;text-indent:0;text-align:start;text-decoration:none;text-decoration-line:none;text-decoration-style:solid;text-decoration-color:#000000;letter-spacing:normal;word-spacing:normal;text-transform:none;writing-mode:lr-tb;direction:ltr;text-orientation:mixed;dominant-baseline:auto;baseline-shift:baseline;text-anchor:start;white-space:normal;shape-padding:0;clip-rule:nonzero;display:inline;overflow:visible;visibility:visible;opacity:1;isolation:auto;mix-blend-mode:normal;color-interpolation:sRGB;color-interpolation-filters:linearRGB;solid-color:#000000;solid-opacity:1;vector-effect:none;fill:#000000;fill-opacity:1;fill-rule:nonzero;stroke:none;stroke-width:0.529167;stroke-linecap:butt;stroke-linejoin:round;stroke-miterlimit:4;stroke-dasharray:none;stroke-dashoffset:0;stroke-opacity:1;color-rendering:auto;image-rendering:auto;shape-rendering:auto;text-rendering:auto;enable-background:accumulate" d="m 7.1517994,1.1327565 c -0.06519,0.14734 -0.10551,0.25803 -0.2149668,0.38293 -0.109456,0.12489 -0.295991,0.27156 -0.6753892,0.42374 -0.3793969,0.15218 -0.6186318,0.17666 -0.7854558,0.16227 -0.1668262,-0.0144 -0.273884,-0.0683 -0.4237331,-0.12919 -0.14985,-0.0609 -0.3502721,-0.12822 -0.6071791,-0.0486 -0.2384079,0.0739 -0.4749369,0.24423 -0.8009581,0.56224 -0.3260209,0.31802 -0.5028698,0.5504501 -0.5818579,0.7870301 -0.08397,0.2514899 -0.02014,0.4577901 0.03876,0.6077199 0.0589,0.1499301 0.111417,0.2570602 0.1229862,0.42168 0.01157,0.16461 -0.017611,0.3981701 -0.1772442,0.77153 -0.159636,0.3733501 -0.308744,0.55763 -0.4376849,0.6661102 -0.1289421,0.10848 -0.2462881,0.14805 -0.3984131,0.2170399 -0.185776,0.0842 -0.348321,0.1924399 -0.460939,0.4216799 -0.08213,0.1671802 -0.127603,0.3736602 -0.148306,0.6557701 -0.75315593,0.27622 -1.07225095,0.89886 -1.07225095,1.4319501 v 2.1621503 c 0,0.43267 0.210372,1.03533 0.40823002,1.59473 0.09893,0.2797 0.20580893,0.56786 0.27697693,0.79427 0.07116,0.2264 0.108517,0.41188 0.108517,0.47852 l -5.159e-4,0.26148 c -0.146631,5.82e-4 -0.264613,0.1195 -0.264058,0.26562 v 2.11512 c -5.583e-4,0.14612 0.117426,0.26502 0.263541,0.26561 h 4.235262 c 0.1461151,-5.82e-4 0.2640981,-0.11949 0.2635411,-0.26561 v -2.11512 c 5.292e-4,-0.1284 -0.08436,-0.23648 -0.222718,-0.26148 0.03338,-0.0638 0.07527,-0.12872 0.130221,-0.22273 0.122637,-0.21242 0.239096,-0.44708 0.304364,-0.7922 0.07149,0.0222 0.1454819,0.0477 0.2289188,0.0811 0.3793982,0.15218 0.5659332,0.29679 0.6753892,0.42168 0.109457,0.1249 0.149769,0.23766 0.2149671,0.38499 0.0652,0.14734 0.1542557,0.33075 0.4040968,0.45527 0.212844,0.10608 0.4894752,0.14692 0.91025,0.14728 0.4207751,-3.7e-4 0.697407,-0.0412 0.9102511,-0.14728 0.2498389,-0.12452 0.3389011,-0.30793 0.404096,-0.45527 0.06519,-0.14733 0.10551,-0.26009 0.2149671,-0.38499 0.1094563,-0.12489 0.2959913,-0.2695 0.6753883,-0.42168 0.08344,-0.0335 0.157432,-0.0589 0.228919,-0.0811 0.06527,0.34512 0.181726,0.57978 0.304364,0.7922 0.05495,0.094 0.09684,0.15891 0.130221,0.22273 -0.138363,0.025 -0.223247,0.13308 -0.222718,0.26148 v 2.11512 c -5.55e-4,0.14612 0.117426,0.26503 0.263541,0.26561 h 4.235262 c 0.146115,-5.82e-4 0.264099,-0.11949 0.263542,-0.26561 v -2.11512 c 5.56e-4,-0.14612 -0.117427,-0.26503 -0.264058,-0.26562 l -5.29e-4,-0.26148 c 0,-0.0666 0.03736,-0.25212 0.108516,-0.47852 0.07117,-0.22641 0.178047,-0.51457 0.276977,-0.79427 0.197859,-0.5594 0.409276,-1.16206 0.409276,-1.59473 V 8.4666567 c 0,-0.5330901 -0.320141,-1.1557301 -1.073296,-1.4319501 C 15.31018,6.7525967 15.2647,6.5461167 15.182563,6.3789365 15.069946,6.1496965 14.907401,6.0415065 14.721624,5.9572566 14.569499,5.8882566 14.452154,5.8486967 14.323212,5.7402167 14.19427,5.6317365 14.045164,5.4474566 13.885527,5.0741065 c -0.159636,-0.3733599 -0.188816,-0.60692 -0.177245,-0.77153 0.01157,-0.1646198 0.06409,-0.2717499 0.122986,-0.42168 0.0589,-0.1499298 0.122724,-0.35623 0.03876,-0.6077199 -0.07899,-0.23658 -0.255838,-0.4690101 -0.581857,-0.7870301 -0.326022,-0.31801 -0.562551,-0.48833 -0.800959,-0.56224 -0.256907,-0.0796 -0.457328,-0.0123 -0.607178,0.0486 -0.149849,0.0609 -0.256907,0.1148 -0.423733,0.12919 -0.166812,0.0144 -0.406047,-0.0101 -0.785444,-0.16227 -0.379397,-0.15218 -0.565932,-0.29885 -0.6753884,-0.42374 -0.109457,-0.1249 -0.1497711,-0.23559 -0.2149671,-0.38293 -0.0652,-0.14732995 -0.1608428,-0.33557995 -0.404096,-0.45681995 -0.2023049,-0.10083 -0.4883758,-0.14607 -0.910251,-0.14676 -0.4218739,6.9e-4 -0.707947,0.0459 -0.910254,0.14676 -0.243259,0.12124 -0.338903,0.30949 -0.4041011,0.45681995 z m 6.3415276,9.4509805 c 0,0.0444 -0.02289,0.0993 -0.105417,0.19947 -0.08253,0.10014 -0.213827,0.22672 -0.355522,0.38654 -0.224282,0.25298 -0.46679,0.59355 -0.559121,1.09813 -0.11569,0.0713 -0.179674,0.0824 -0.226335,0.0817 -0.05783,-9.26e-4 -0.131008,-0.0297 -0.267158,-0.0858 -0.329173,-0.13988 -0.741509,-0.23423 -1.505803,0.0724 -0.433233,0.17377 -0.7022314,0.36704 -0.8769194,0.56637 -0.1746879,0.19933 -0.2457669,0.39654 -0.2991969,0.51728 -0.05343,0.12075 -0.08114,0.15904 -0.158124,0.19741 -0.08809,0.0439 -0.2936602,0.0895 -0.673581,0.0909 -0.379921,-0.001 -0.5854883,-0.047 -0.6735802,-0.0909 -0.07698,-0.0384 -0.1046999,-0.0767 -0.158128,-0.19742 -0.05343,-0.12074 -0.1245079,-0.31795 -0.2991969,-0.51728 -0.1746869,-0.19933 -0.443687,-0.3926 -0.87692,-0.56637 -0.7642952,-0.30658 -1.1766301,-0.21222 -1.5058022,-0.0724 -0.1361509,0.0561 -0.2093309,0.0849 -0.267159,0.0858 -0.04666,7.67e-4 -0.1106448,-0.0104 -0.2263349,-0.0816 -0.09233,-0.50457 -0.334839,-0.84515 -0.559121,-1.09812 -0.141695,-0.15982 -0.272995,-0.2864 -0.3555219,-0.38654 -0.08253,-0.10014 -0.1054172,-0.15512 -0.1054172,-0.19947 V 9.4490141 c 6.11e-5,-0.003 6.11e-5,-0.007 0,-0.01 C 3.4163994,8.6926839 3.0359785,8.189934 2.5971864,8.0117138 c -0.109697,-0.044596 -0.225479,-0.069596 -0.340019,-0.069196 -0.03133,9e-5 -0.0636,0.004 -0.09456,0.008 -0.02518,-0.1262499 -0.04297,-0.3009598 -0.04547,-0.5658599 0.0036,-0.43737 0.05545,-0.6681999 0.106967,-0.7730799 0.04113,-0.0837 0.08511,-0.1176401 0.205148,-0.17208 0.120039,-0.0544 0.31723,-0.12461 0.5198481,-0.2950702 0.202619,-0.17047 0.4012309,-0.43571 0.5839249,-0.863 0.1826951,-0.4272899 0.2371442,-0.75195 0.2185839,-1.01596 -0.01856,-0.26401 -0.1098558,-0.4548799 -0.158124,-0.57774 -0.04827,-0.12286 -0.05372,-0.1732801 -0.02945,-0.2459799 0.03224,-0.0966 0.150014,-0.2845001 0.449054,-0.5761901 0.2990421,-0.2917 0.488851,-0.40488 0.5880581,-0.43564 0.08687,-0.0233 0.1289691,-0.017 0.2521731,0.0331 0.123204,0.0501 0.313155,0.14306 0.5777238,0.16588 0.2645672,0.0228 0.5940602,-0.0252 1.027294,-0.19896 0.4332341,-0.17377 0.702233,-0.36549 0.8769202,-0.56482 0.174689,-0.19933 0.2457691,-0.3986 0.2991969,-0.51935 0.03907,-0.0883 0.06542,-0.14913 0.1581251,-0.19534 0.09973,-0.0497 0.2950329,-0.0905 0.6735799,-0.0915 0.3785481,9.393e-4 0.5738522,0.0418 0.6735811,0.0915 l -1.4e-5,-1.013e-4 c 0.0927,0.0462 0.119049,0.10703 0.158124,0.19534 0.05343,0.12075 0.124509,0.32002 0.2991972,0.51935 0.174688,0.19933 0.4436843,0.39105 0.8769193,0.56482 0.433234,0.17378 0.762727,0.2217801 1.027294,0.19896 0.264569,-0.0228 0.45452,-0.11581 0.577724,-0.16588 0.123204,-0.0501 0.165308,-0.0564 0.252173,-0.0331 0.09921,0.0308 0.289016,0.14394 0.588058,0.43564 0.29904,0.29169 0.416811,0.4796201 0.449054,0.5761901 0.02427,0.0727 0.01882,0.1231199 -0.02946,0.24598 -0.04827,0.12286 -0.139565,0.3137299 -0.158124,0.5777399 -0.01856,0.26401 0.03589,0.5886702 0.218584,1.0159601 0.182694,0.4272899 0.381306,0.6925299 0.583924,0.8629999 0.202619,0.1704602 0.39981,0.2406301 0.519849,0.2950702 0.120038,0.0544 0.164018,0.0884 0.205148,0.17208 0.05152,0.10488 0.103372,0.33571 0.106967,0.77308 -0.0025,0.2649 -0.02029,0.4396099 -0.04547,0.5658598 -0.03097,-0.004 -0.06324,-0.008 -0.09456,-0.008 -0.11454,-3.439e-4 -0.230323,0.024699 -0.34002,0.0692 -0.438793,0.1782202 -0.819217,0.68097 -0.841782,1.4323106 z M 5.2610205,5.0694766 c -0.44826,0.1324501 -0.7627199,0.5383299 -0.7627199,1.0164701 0,0.18751 0.04666,0.3582699 0.1328049,0.5116 -0.5565981,0.3185099 -0.927045,0.91509 -0.927045,1.60558 v 0.2635499 c 0,0.59099 0.4760569,1.0583405 1.057782,1.0583405 h 0.3493209 c 0.7245911,1.1485999 1.9895863,1.8518999 3.3549831,1.8520799 1.3653971,-1.8e-4 2.6303905,-0.70348 3.3549825,-1.8520799 h 0.349321 c 0.581725,0 1.057783,-0.4673505 1.057783,-1.0583405 V 8.2031267 c 0,-0.69049 -0.370449,-1.2870701 -0.927045,-1.60558 0.08615,-0.1533301 0.132804,-0.32409 0.132804,-0.5116 0,-0.4781402 -0.31446,-0.88402 -0.76272,-1.0164701 C 10.925215,4.0428665 9.7350456,3.4404465 8.4661465,3.4401165 c -1.268898,3.175e-4 -2.459069,0.60275 -3.205126,1.6293601 z m 5.7482985,0.024299 c -0.401673,0.1435698 -0.691408,0.5388099 -0.691408,0.9921798 0,0.1858701 0.04817,0.35921 0.132804,0.5116002 -0.195827,0.1122098 -0.364807,0.2554298 -0.5069285,0.42891 -0.141315,-0.1384401 -0.29611,-0.2527102 -0.471791,-0.3472601 0.1978912,-0.23201 0.3167661,-0.5318199 0.3167661,-0.8593799 0,-0.72732 -0.590736,-1.3216001 -1.3226151,-1.32188 -0.731878,2.91e-4 -1.322615,0.59456 -1.322615,1.32188 0,0.32756 0.1188751,0.6273699 0.316766,0.8593799 -0.1756799,0.0945 -0.330476,0.20882 -0.4717899,0.3472601 -0.1421231,-0.1734802 -0.3111032,-0.3167002 -0.50693,-0.42891 0.08464,-0.1523902 0.1328039,-0.3257301 0.1328039,-0.5116002 0,-0.4533699 -0.2897349,-0.84861 -0.6914079,-0.9921899 0.647781,-0.7127301 1.5685789,-1.12419 2.5431729,-1.1244702 0.9745951,2.911e-4 1.8953915,0.4117401 2.5431725,1.1244803 z m -3.3366383,0.72605 c 0,-0.4415102 0.3607617,-0.79272 0.7934658,-0.79272 0.4327052,0 0.7934661,0.3512098 0.7934661,0.79272 0,0.44133 -0.3568599,0.79502 -0.7934661,0.7952999 C 8.0295417,6.6148348 7.6726807,6.2611559 7.6726807,5.8198256 Z M 5.5565995,5.5562758 c 0.289174,0 0.528633,0.2343001 0.528633,0.5296799 0,0.2953901 -0.238425,0.5291701 -0.528633,0.5291701 -0.2902069,0 -0.5291489,-0.23378 -0.5291489,-0.5291701 0,-0.2953798 0.239976,-0.5296799 0.5291489,-0.5296799 z m 5.8190935,0 c 0.289173,0 0.529149,0.2343001 0.529149,0.5296799 0,0.2953901 -0.238942,0.5291701 -0.529149,0.5291701 -0.290208,0 -0.528633,-0.23378 -0.528633,-0.5291701 0,-0.2953798 0.239459,-0.5296799 0.528633,-0.5296799 z M 7.5398765,9.5250261 c -0.3704209,0 -0.6609199,-0.2996703 -0.6609199,-0.6661103 V 8.5504066 c 0,-0.7060999 0.4526338,-1.3009599 1.0738019,-1.5104999 0.15582,0.0647 0.332735,0.10438 0.513388,0.10438 0.1806541,0 0.357568,-0.0397 0.5133891,-0.10438 0.6211681,0.20954 1.0738004,0.8044 1.0738004,1.5104999 v 0.30851 c 0,0.36644 -0.2904983,0.6661105 -0.6609195,0.6661105 z M 5.5565995,7.1442859 c 0.1965891,0 0.3828381,-0.0564 0.5400019,-0.1493401 0.2269892,0.10107 0.4250661,0.2698401 0.5539531,0.4614701 -0.1955819,0.3293399 -0.3007469,0.69494 -0.3007469,1.0939899 v 0.30851 c 0,0.0462 0.0033,0.0901 0.0083,0.13487 -0.0047,1.4e-4 -0.0036,0.00201 -0.0083,0.00201 H 4.7618425 c -0.2978661,0 -0.528633,-0.2398901 -0.528633,-0.5291601 v -0.263559 c 0,-0.5418799 0.3189031,-1.0034701 0.782356,-1.2086805 0.157939,0.09413 0.343204,0.1498897 0.541034,0.1498897 z M 12.699083,8.203136 v 0.2635498 c 0,0.2892701 -0.230767,0.5291702 -0.528633,0.5291702 h -1.587965 c -0.0047,0 -0.0036,-0.00201 -0.0083,-0.00201 0.005,-0.0448 0.0083,-0.0887 0.0083,-0.13487 V 8.550455 c 0,-0.3990501 -0.105165,-0.76464 -0.300747,-1.0939899 0.128887,-0.19163 0.326965,-0.3604001 0.553954,-0.4614701 0.157164,0.093 0.343412,0.1493499 0.540001,0.1493499 0.197829,0 0.383096,-0.0558 0.541034,-0.1498895 0.463453,0.2052104 0.782356,0.6668004 0.782356,1.2086806 z M 1.6928764,8.2480966 c -0.06616,0.1105101 -0.105416,0.2505199 -0.105416,0.4061801 v 1.9316703 c 0,0.35286 0.529666,0.35286 0.529666,0 V 8.6542767 c 0,-0.1023202 0.02821,-0.14533 0.06201,-0.1638101 0.03379,-0.0185 0.112776,-0.0318 0.2191011,0.011401 0.2126479,0.0864 0.494151,0.3783999 0.51158,0.9549795 v 1.1270609 c 0,0.22023 0.1109,0.3953 0.226335,0.53537 0.1154351,0.14007 0.24697,0.26438 0.369475,0.40256 0.2450079,0.27635 0.4611889,0.60822 0.4624891,1.17925 0.00111,0.29476 0.3631969,0.34232 0.484192,0.14418 0.08087,0.0239 0.164357,0.0348 0.2408049,0.0336 0.1973519,-0.003 0.3410109,-0.0772 0.4609381,-0.12661 0.0837,-0.0345 0.193381,-0.0783 0.3560389,-0.0863 -0.05509,0.27555 -0.1513271,0.45541 -0.239254,0.60772 -0.08363,0.14308 -0.186826,0.29585 -0.2408041,0.48421 h -3.177997 v -0.26149 c 0,-0.19794 -0.0758,-0.45322 -0.134872,-0.64492 -0.07654,-0.243531 -0.178959,-0.517681 -0.276976,-0.794781 -0.196023,-0.55422 -0.381877,-1.11312 -0.381877,-1.42782 V 8.4667266 c 0,-0.24917 0.124391,-0.6211398 0.534835,-0.8485399 0.012461,0.2611599 0.044001,0.4666998 0.099731,0.6299099 z m 14.1821486,0.21859 v 2.1621504 c 0,0.3147 -0.186899,0.8736 -0.382922,1.42782 -0.09802,0.2771 -0.200432,0.55125 -0.276976,0.79478 -0.05907,0.1917 -0.134871,0.44698 -0.134871,0.64492 v 0.26148 h -3.177998 c -0.05398,-0.18835 -0.157178,-0.34112 -0.240804,-0.4842 -0.08793,-0.15231 -0.184162,-0.33217 -0.239254,-0.60772 0.162659,0.008 0.272342,0.0518 0.356039,0.0863 0.119927,0.0494 0.263586,0.1234 0.460939,0.12661 0.07645,0.001 0.159935,-0.01 0.240804,-0.0336 0.120995,0.19814 0.483078,0.15058 0.484193,-0.14418 0.0013,-0.57103 0.21748,-0.9029 0.462489,-1.17926 0.122505,-0.13817 0.254039,-0.26249 0.369474,-0.40255 0.115435,-0.14007 0.226335,-0.31514 0.226335,-0.53537 V 9.4568071 c 0.01743,-0.5765804 0.298932,-0.8686204 0.51158,-0.9549904 0.106325,-0.0432 0.185307,-0.0298 0.219101,-0.011401 0.0338,0.0185 0.06201,0.0615 0.06201,0.1638101 v 1.9316702 c 0,0.35286 0.529666,0.35286 0.529666,0 V 8.6542259 c 0,-0.1556602 -0.03926,-0.29567 -0.105416,-0.4061801 0.05574,-0.1632098 0.08727,-0.36875 0.09973,-0.6299046 0.410444,0.2274054 0.53588,0.5993754 0.53588,0.8485454 z M 5.7555474,9.5250271 h 0.5942602 c 0.06524,0 0.1283248,-0.005 0.190163,-0.017 0.2119601,0.33091 0.5801569,0.5462209 0.9999059,0.5462209 h 1.85254 c 0.4197491,0 0.7879455,-0.2153109 0.9999055,-0.5462209 0.06184,0.0119 0.124925,0.017 0.190163,0.017 h 0.59426 C 10.530694,10.353028 9.5345457,10.847267 8.4661465,10.847427 7.3977484,10.847267 6.4015985,10.353028 5.7555474,9.5250271 Z m -4.168085,4.7619799 h 3.704046 v 1.58801 h -3.704046 z m 10.0533216,0 h 3.704046 v 1.58801 h -3.704046 z"/></g><text x="0" y="31.933334" fill="#000000" font-size="5px" font-weight="bold" font-family="'Helvetica Neue', Helvetica, Arial-Unicode, Arial, Sans-serif">Created by Aficons</text><text x="0" y="36.933334" fill="#000000" font-size="5px" font-weight="bold" font-family="'Helvetica Neue', Helvetica, Arial-Unicode, Arial, Sans-serif">from the Noun Project</text></svg>