<?xml version="1.0" standalone="no"?>
<!DOCTYPE svg PUBLIC "-//W3C//DTD SVG 20010904//EN"
 "http://www.w3.org/TR/2001/REC-SVG-20010904/DTD/svg10.dtd">
<svg version="1.0" xmlns="http://www.w3.org/2000/svg"
 width="700.000000pt" height="700.000000pt" viewBox="0 0 700.000000 700.000000"
 preserveAspectRatio="xMidYMid meet">
<metadata>
Created by potrace 1.14, written by Peter Selinger 2001-2017
</metadata>
<g transform="translate(0.000000,700.000000) scale(0.100000,-0.100000)"
fill="#000000" stroke="none">
<path d="M3390 6546 c-220 -60 -361 -281 -316 -496 25 -117 87 -214 176 -271
l50 -32 0 -249 0 -248 -877 0 -878 -1 -117 -80 -118 -80 0 -475 0 -474 -108 0
-107 0 -108 -108 -107 -107 0 -215 0 -215 108 -108 107 -107 108 0 107 0 0
-623 0 -622 111 -143 111 -142 549 0 549 0 2 -527 3 -526 175 -73 c96 -40 180
-73 186 -74 6 0 256 270 555 600 l543 600 681 0 680 0 113 113 112 112 0 653
0 652 113 0 112 0 108 108 107 107 0 215 0 215 -108 108 -107 107 -113 0 -112
0 0 443 0 442 -113 113 -112 112 -873 0 -872 0 0 258 1 257 41 25 c83 51 160
176 179 289 32 203 -122 422 -332 470 -59 14 -154 13 -209 -3z m1860 -3046 l0
-1310 -619 0 -619 0 -73 -31 c-41 -17 -84 -41 -97 -52 -13 -12 -193 -214 -400
-449 l-377 -428 -3 480 -2 480 -133 0 c-125 0 -1012 44 -1124 56 l-53 5 0
1280 0 1279 1750 0 1750 0 0 -1310z"/>
<path d="M2400 3935 l0 -215 220 0 220 0 0 215 0 215 -220 0 -220 0 0 -215z"/>
<path d="M4150 3935 l0 -215 220 0 220 0 0 215 0 215 -220 0 -220 0 0 -215z"/>
<path d="M2511 3126 l-152 -152 53 -50 c119 -113 304 -230 469 -298 573 -235
1197 -133 1673 274 l76 65 -154 154 -154 154 -53 -47 c-115 -103 -267 -189
-427 -242 -102 -33 -155 -39 -357 -39 -142 1 -185 4 -260 23 -180 45 -349 131
-488 247 l-74 63 -152 -152z"/>
</g>
</svg>
